<svg xmlns="http://www.w3.org/2000/svg" xmlns:xlink="http://www.w3.org/1999/xlink" version="1.1" x="0px" y="0px" viewBox="0 0 100 125" style="enable-background:new 0 0 100 100;" xml:space="preserve"><path d="M70,50v17c0,1.1-0.9,2-2,2h-6V50c0-1.1,0.9-2,2-2h4C69.1,48,70,48.9,70,50z M37,48h-4c-1.1,0-2,0.9-2,2v17c0,1.1,0.9,2,2,2  h6V50C39,48.9,38.1,48,37,48z M65,46V34c0-1.7-1.3-3-3-3H39c-1.7,0-3,1.3-3,3v12h1c2.2,0,4,1.8,4,4v2h19v-2c0-2.2,1.8-4,4-4H65z   M40,69h21V54H40V69z"/><text x="0" y="115" fill="#000000" font-size="5px" font-weight="bold" font-family="'Helvetica Neue', Helvetica, Arial-Unicode, Arial, Sans-serif">Created by Setyo Ari Wibowo</text><text x="0" y="120" fill="#000000" font-size="5px" font-weight="bold" font-family="'Helvetica Neue', Helvetica, Arial-Unicode, Arial, Sans-serif">from the Noun Project</text></svg>