<svg width="39" height="38" viewBox="0 0 39 38" fill="none" xmlns="http://www.w3.org/2000/svg">
<g clip-path="url(#clip0_1_14)">
<path d="M39 19V36C39 37.1 38.1 38 37 38H31V19C31 17.9 31.9 17 33 17H37C38.1 17 39 17.9 39 19ZM6 17H2C0.9 17 0 17.9 0 19V36C0 37.1 0.9 38 2 38H8V19C8 17.9 7.1 17 6 17ZM34 15V3C34 1.3 32.7 0 31 0H8C6.3 0 5 1.3 5 3V15H6C8.2 15 10 16.8 10 19V21H29V19C29 16.8 30.8 15 33 15H34ZM9 38H30V23H9V38Z" fill="#991B1B"/>
</g>
<defs>
<clipPath id="clip0_1_14">
<rect width="39" height="38" fill="white"/>
</clipPath>
</defs>
</svg>
